<svg xmlns="http://www.w3.org/2000/svg" viewBox="0 0 1600 460" role="img" aria-label="추상적인 아라드 이벤트 배너">
  <defs>
    <linearGradient id="sky" x1="0" x2="1" y1="0" y2="1">
      <stop offset="0" stop-color="#eff8f5"/>
      <stop offset="0.58" stop-color="#d8eee8"/>
      <stop offset="1" stop-color="#f7f0dc"/>
    </linearGradient>
    <linearGradient id="grass" x1="0" x2="1">
      <stop offset="0" stop-color="#5fa36c"/>
      <stop offset="1" stop-color="#2e6f56"/>
    </linearGradient>
    <filter id="soft" x="-10%" y="-10%" width="120%" height="120%">
      <feGaussianBlur stdDeviation="3"/>
    </filter>
  </defs>
  <rect width="1600" height="460" fill="url(#sky)"/>
  <path d="M0 235 C160 155 300 190 430 130 C610 45 780 170 930 115 C1130 42 1260 104 1600 62 L1600 460 L0 460 Z" fill="#c7d8cf" opacity=".5"/>
  <path d="M0 250 C180 208 280 222 405 178 C540 130 680 232 840 172 C960 128 1120 202 1275 160 C1390 130 1510 148 1600 122 L1600 460 L0 460 Z" fill="#91b9a3" opacity=".42"/>
  <g opacity=".92">
    <rect x="165" y="42" width="22" height="300" rx="10" fill="#21704e"/>
    <rect x="205" y="2" width="28" height="355" rx="12" fill="#2d8b5c"/>
    <rect x="255" y="35" width="18" height="318" rx="9" fill="#1e694a"/>
    <rect x="295" y="0" width="32" height="365" rx="14" fill="#389762"/>
    <rect x="350" y="56" width="22" height="298" rx="10" fill="#26754f"/>
    <rect x="1180" y="16" width="24" height="342" rx="10" fill="#257550"/>
    <rect x="1226" y="0" width="32" height="366" rx="14" fill="#348e5f"/>
    <rect x="1282" y="60" width="18" height="300" rx="9" fill="#1f684a"/>
  </g>
  <g fill="#f6b8c8" opacity=".82" filter="url(#soft)">
    <circle cx="84" cy="132" r="48"/>
    <circle cx="118" cy="98" r="38"/>
    <circle cx="132" cy="154" r="52"/>
    <circle cx="1460" cy="128" r="46"/>
    <circle cx="1495" cy="96" r="34"/>
    <circle cx="1515" cy="156" r="55"/>
  </g>
  <path d="M1030 230 C1062 152 1142 122 1228 156 C1294 182 1324 258 1291 328 C1258 400 1150 410 1084 358 C1038 322 1005 288 1030 230 Z" fill="#837d63"/>
  <path d="M1100 225 C1136 188 1202 199 1222 248 C1246 306 1178 358 1124 324 C1082 298 1068 258 1100 225 Z" fill="#66614e"/>
  <path d="M1128 248 C1162 220 1198 242 1185 278 C1173 314 1122 300 1130 268" fill="none" stroke="#36b8bd" stroke-width="9" stroke-linecap="round"/>
  <path d="M0 336 C210 300 370 330 520 300 C700 266 850 335 1030 300 C1220 264 1380 318 1600 286 L1600 460 L0 460 Z" fill="url(#grass)"/>
  <path d="M0 388 C260 352 460 385 710 360 C915 340 1050 390 1240 360 C1390 340 1490 355 1600 336 L1600 460 L0 460 Z" fill="#265a45" opacity=".65"/>
  <g>
    <rect x="595" y="256" width="54" height="54" fill="#2b4d86"/>
    <rect x="584" y="310" width="78" height="36" fill="#f4c15f"/>
    <rect x="608" y="218" width="30" height="38" fill="#f0b05a"/>
    <rect x="572" y="238" width="34" height="18" fill="#f7d78b"/>
    <rect x="648" y="266" width="42" height="18" fill="#d73c2c"/>
    <rect x="604" y="346" width="18" height="36" fill="#222"/>
    <rect x="640" y="346" width="18" height="36" fill="#222"/>
  </g>
  <g>
    <rect x="910" y="270" width="48" height="56" fill="#ba432f"/>
    <rect x="920" y="226" width="34" height="44" fill="#f1b061"/>
    <path d="M905 230 C940 190 980 220 968 270 C940 254 920 248 905 230 Z" fill="#5d2b1c"/>
    <rect x="888" y="322" width="22" height="48" fill="#202020"/>
    <rect x="950" y="322" width="22" height="48" fill="#202020"/>
    <rect x="956" y="285" width="58" height="18" fill="#efcf61"/>
  </g>
  <rect x="615" y="58" width="370" height="126" rx="2" fill="#fffdf3" opacity=".54"/>
  <path d="M632 74 H968 M632 168 H968 M632 74 V168 M968 74 V168" fill="none" stroke="#cf9a21" stroke-width="6"/>
  <text x="800" y="122" text-anchor="middle" font-family="Arial, sans-serif" font-size="54" font-weight="800" fill="#d93628" opacity=".34">NEWB TRAINING</text>
  <text x="800" y="162" text-anchor="middle" font-family="Arial, sans-serif" font-size="30" font-weight="700" fill="#2b2a25" opacity=".45">DNFM.KR GUIDE HUB</text>
</svg>
